<svg width="128" height="23" viewBox="0 0 128 23" xmlns="http://www.w3.org/2000/svg">
<path d="M0.88 22.5C0.39399 22.5 1.36642e-07 22.106 1.15398e-07 21.62L0 18.98C-2.12441e-08 18.494 0.393989 18.1 0.879999 18.1H3.86887C4.00974 18.1 4.14483 18.044 4.24444 17.9444C4.34404 17.8448 4.4 17.7097 4.4 17.5689V14.58C4.4 14.094 4.79399 13.7 5.28 13.7H8.26887C8.40974 13.7 8.54483 13.644 8.64444 13.5444C8.74404 13.4448 8.8 13.3097 8.8 13.1689V10.18C8.8 9.69399 8.40601 9.3 7.92 9.3L5.28 9.3C4.79399 9.3 4.4 8.90601 4.4 8.42V5.78C4.4 5.29399 4.00601 4.9 3.52 4.9H0.88C0.39399 4.9 1.36642e-07 4.50601 1.15398e-07 4.02L0 1.38C-2.12442e-08 0.89399 0.393989 0.5 0.88 0.5L3.52 0.5C4.00601 0.5 4.4 0.893989 4.4 1.38V4.36887C4.4 4.50974 4.45596 4.64483 4.55556 4.74444C4.65517 4.84404 4.79026 4.9 4.93113 4.9H7.92C8.40601 4.9 8.8 5.29399 8.8 5.78V8.76887C8.8 8.90974 8.85596 9.04483 8.95556 9.14444C9.05517 9.24404 9.19026 9.3 9.33113 9.3H12.6689C12.8097 9.3 12.9448 9.24404 13.0444 9.14444C13.144 9.04483 13.2 8.90974 13.2 8.76887V5.78C13.2 5.29399 13.594 4.9 14.08 4.9H17.0689C17.2097 4.9 17.3448 4.84404 17.4444 4.74444C17.544 4.64483 17.6 4.50974 17.6 4.36887V1.38C17.6 0.893991 17.994 0.500001 18.48 0.500001L21.12 0.500001C21.606 0.500001 22 0.89399 22 1.38V4.02C22 4.50601 21.606 4.9 21.12 4.9L18.48 4.9C17.994 4.9 17.6 5.29399 17.6 5.78V8.42C17.6 8.90601 17.206 9.3 16.72 9.3H14.08C13.594 9.3 13.2 9.69399 13.2 10.18V13.1689C13.2 13.3097 13.256 13.4448 13.3556 13.5444C13.4552 13.644 13.5903 13.7 13.7311 13.7H16.72C17.206 13.7 17.6 14.094 17.6 14.58V17.5689C17.6 17.7097 17.656 17.8448 17.7556 17.9444C17.8552 18.044 17.9903 18.1 18.1311 18.1H21.12C21.606 18.1 22 18.494 22 18.98V21.62C22 22.106 21.606 22.5 21.12 22.5H18.48C17.994 22.5 17.6 22.106 17.6 21.62V18.98C17.6 18.494 17.206 18.1 16.72 18.1H14.08C13.594 18.1 13.2 17.706 13.2 17.22V14.58C13.2 14.094 12.806 13.7 12.32 13.7H9.68C9.19399 13.7 8.8 14.094 8.8 14.58V17.22C8.8 17.706 8.40601 18.1 7.92 18.1H5.28C4.79399 18.1 4.4 18.494 4.4 18.98V21.62C4.4 22.106 4.00601 22.5 3.52 22.5H0.88Z" fill="#F0EFFB"/>
<path d="M40.5115 19.242C38.3115 19.242 36.5735 18.516 35.2535 17.064C33.9335 15.612 33.2735 13.676 33.2735 11.278C33.2735 8.946 33.9335 7.032 35.2755 5.558C36.6175 4.106 38.3775 3.358 40.5555 3.358C42.2715 3.358 43.7235 3.842 44.9115 4.788C46.0995 5.734 46.8915 7.032 47.3315 8.682H44.7355C44.0315 6.658 42.6455 5.624 40.5335 5.624C39.0595 5.624 37.8935 6.152 37.0355 7.164C36.1775 8.176 35.7595 9.562 35.7595 11.3C35.7595 13.06 36.1775 14.446 37.0355 15.458C37.8935 16.47 39.0595 16.976 40.5335 16.976C42.6675 16.976 44.0755 15.898 44.7575 13.742H47.3095C46.8915 15.458 46.0775 16.822 44.8895 17.79C43.7015 18.758 42.2275 19.242 40.5115 19.242ZM61.5973 19H58.6053L54.5573 13.258H51.7633V19H49.2773V3.6H55.4593C57.1533 3.6 58.4953 4.04 59.4633 4.898C60.4313 5.778 60.9153 6.966 60.9153 8.462C60.9153 9.65 60.6073 10.662 59.9913 11.454C59.3753 12.268 58.5393 12.818 57.4393 13.104L61.5973 19ZM51.7633 5.888V11.058H55.4593C56.4273 11.058 57.1533 10.838 57.6593 10.398C58.1653 9.958 58.4293 9.298 58.4293 8.462C58.4293 7.626 58.1653 6.988 57.6593 6.548C57.1533 6.108 56.4273 5.888 55.4593 5.888H51.7633ZM69.5248 19.242C67.3248 19.242 65.5428 18.516 64.2008 17.064C62.8368 15.612 62.1768 13.676 62.1768 11.278C62.1768 8.946 62.8368 7.032 64.2008 5.558C65.5648 4.106 67.3468 3.358 69.5468 3.358C71.7248 3.358 73.4848 4.106 74.8488 5.558C76.1908 7.01 76.8728 8.924 76.8728 11.278C76.8728 13.654 76.1908 15.568 74.8488 17.042C73.4848 18.516 71.7248 19.242 69.5248 19.242ZM69.5248 16.976C71.0208 16.976 72.1868 16.47 73.0668 15.458C73.9468 14.446 74.3868 13.06 74.3868 11.3C74.3868 9.562 73.9468 8.176 73.0668 7.164C72.1868 6.152 71.0208 5.624 69.5248 5.624C68.0288 5.624 66.8408 6.152 65.9608 7.164C65.0808 8.176 64.6628 9.562 64.6628 11.3C64.6628 13.06 65.0808 14.446 65.9608 15.458C66.8408 16.47 68.0288 16.976 69.5248 16.976ZM84.3016 19.242C82.3436 19.242 80.8036 18.802 79.6816 17.922C78.5596 17.042 77.9656 15.788 77.9216 14.116H80.4076C80.5176 16.052 81.8156 17.02 84.3016 17.02C86.6116 17.02 87.7776 16.272 87.7776 14.754C87.7776 14.182 87.5576 13.72 87.1616 13.39C86.7656 13.082 86.0176 12.796 84.9396 12.532L82.8716 12.07C81.2436 11.696 80.0776 11.168 79.3956 10.508C78.6916 9.848 78.3616 8.924 78.3616 7.736C78.3616 6.438 78.8456 5.382 79.8136 4.568C80.7816 3.776 82.1456 3.358 83.9276 3.358C85.6876 3.358 87.0956 3.776 88.1076 4.59C89.1196 5.404 89.6916 6.592 89.8236 8.132H87.3376C87.1836 6.438 86.0396 5.58 83.9276 5.58C81.8596 5.58 80.8476 6.24 80.8476 7.56C80.8476 8.154 81.0236 8.616 81.4196 8.924C81.7936 9.254 82.4976 9.54 83.5316 9.76L85.5996 10.222C87.2716 10.618 88.4596 11.146 89.1856 11.828C89.8896 12.51 90.2636 13.434 90.2636 14.6C90.2636 16.096 89.7136 17.24 88.6356 18.032C87.5576 18.846 86.1056 19.242 84.3016 19.242ZM97.475 19.242C95.517 19.242 93.977 18.802 92.855 17.922C91.733 17.042 91.139 15.788 91.095 14.116H93.581C93.691 16.052 94.989 17.02 97.475 17.02C99.785 17.02 100.951 16.272 100.951 14.754C100.951 14.182 100.731 13.72 100.335 13.39C99.939 13.082 99.191 12.796 98.113 12.532L96.045 12.07C94.417 11.696 93.251 11.168 92.569 10.508C91.865 9.848 91.535 8.924 91.535 7.736C91.535 6.438 92.019 5.382 92.987 4.568C93.955 3.776 95.319 3.358 97.101 3.358C98.861 3.358 100.269 3.776 101.281 4.59C102.293 5.404 102.865 6.592 102.997 8.132H100.511C100.357 6.438 99.213 5.58 97.101 5.58C95.033 5.58 94.021 6.24 94.021 7.56C94.021 8.154 94.197 8.616 94.593 8.924C94.967 9.254 95.671 9.54 96.705 9.76L98.773 10.222C100.445 10.618 101.633 11.146 102.359 11.828C103.063 12.51 103.437 13.434 103.437 14.6C103.437 16.096 102.887 17.24 101.809 18.032C100.731 18.846 99.279 19.242 97.475 19.242ZM104.752 19V16.162H107.326V19H104.752ZM119.948 19L118.54 15.084H112.512L111.126 19H108.552L114.316 3.6H116.78L122.566 19H119.948ZM113.304 12.862H117.748L115.504 6.636L113.304 12.862ZM123.591 19V3.6H126.077V19H123.591Z" fill="#F0EFFB"/>
</svg>
